<?xml version="1.0" encoding="UTF-8"?>
<svg xmlns="http://www.w3.org/2000/svg" xmlns:xlink="http://www.w3.org/1999/xlink" width="375pt" height="374.999991pt" viewBox="0 0 375 374.999991" version="1.2">
<defs>
<filter id="alpha" filterUnits="objectBoundingBox" x="0%" y="0%" width="100%" height="100%">
  <feColorMatrix type="matrix" in="SourceGraphic" values="0 0 0 0 1 0 0 0 0 1 0 0 0 0 1 0 0 0 1 0"/>
</filter>
<mask id="mask0">
  <g filter="url(#alpha)">
<rect x="0" y="0" width="375" height="374.999991" style="fill:rgb(0%,0%,0%);fill-opacity:0.498;stroke:none;"/>
  </g>
</mask>
<clipPath id="clip2">
  <path d="M 0.199219 2 L 144.679688 2 L 144.679688 172 L 0.199219 172 Z M 0.199219 2 "/>
</clipPath>
<clipPath id="clip1">
  <rect x="0" y="0" width="145" height="174"/>
</clipPath>
<g id="surface5" clip-path="url(#clip1)">
<g clip-path="url(#clip2)" clip-rule="nonzero">
<path style=" stroke:none;fill-rule:nonzero;fill:rgb(85.099792%,85.099792%,85.099792%);fill-opacity:1;" d="M 0.382812 44.757812 L 0.382812 129.164062 L 72.515625 171.222656 L 144.617188 129.164062 L 144.617188 44.757812 L 72.515625 2.703125 Z M 0.382812 44.757812 "/>
</g>
</g>
<mask id="mask1">
  <g filter="url(#alpha)">
<rect x="0" y="0" width="375" height="374.999991" style="fill:rgb(0%,0%,0%);fill-opacity:0.498;stroke:none;"/>
  </g>
</mask>
<clipPath id="clip4">
  <path d="M 0.398438 2 L 144.878906 2 L 144.878906 172 L 0.398438 172 Z M 0.398438 2 "/>
</clipPath>
<clipPath id="clip3">
  <rect x="0" y="0" width="145" height="174"/>
</clipPath>
<g id="surface8" clip-path="url(#clip3)">
<g clip-path="url(#clip4)" clip-rule="nonzero">
<path style=" stroke:none;fill-rule:nonzero;fill:rgb(85.099792%,85.099792%,85.099792%);fill-opacity:1;" d="M 0.421875 44.835938 L 0.421875 129.242188 L 72.539062 171.296875 L 144.652344 129.242188 L 144.652344 44.835938 L 72.539062 2.777344 Z M 0.421875 44.835938 "/>
</g>
</g>
<mask id="mask2">
  <g filter="url(#alpha)">
<rect x="0" y="0" width="375" height="374.999991" style="fill:rgb(0%,0%,0%);fill-opacity:0.498;stroke:none;"/>
  </g>
</mask>
<clipPath id="clip6">
  <path d="M 0.238281 2 L 144.71875 2 L 144.71875 172 L 0.238281 172 Z M 0.238281 2 "/>
</clipPath>
<clipPath id="clip5">
  <rect x="0" y="0" width="145" height="174"/>
</clipPath>
<g id="surface11" clip-path="url(#clip5)">
<g clip-path="url(#clip6)" clip-rule="nonzero">
<path style=" stroke:none;fill-rule:nonzero;fill:rgb(85.099792%,85.099792%,85.099792%);fill-opacity:1;" d="M 0.347656 44.835938 L 0.347656 129.242188 L 72.476562 171.296875 L 144.578125 129.242188 L 144.578125 44.835938 L 72.476562 2.777344 Z M 0.347656 44.835938 "/>
</g>
</g>
</defs>
<g id="surface1">
<path style=" stroke:none;fill-rule:nonzero;fill:rgb(85.099792%,85.099792%,85.099792%);fill-opacity:1;" d="M 274.039062 50.480469 L 187.515625 0 L 100.960938 50.480469 L 100.960938 151.441406 L 187.515625 201.921875 L 274.039062 151.441406 Z M 259.617188 143.164062 L 187.515625 185.222656 L 115.382812 143.164062 L 115.382812 58.757812 L 187.515625 16.703125 L 259.617188 58.757812 Z M 259.617188 143.164062 "/>
<use xlink:href="#surface5" transform="matrix(1,0,0,1,115,14)" mask="url(#mask0)"/>
<path style=" stroke:none;fill-rule:nonzero;fill:rgb(85.099792%,85.099792%,85.099792%);fill-opacity:1;" d="M 0 223.558594 L 0 324.519531 L 86.539062 375 L 173.078125 324.519531 L 173.078125 223.558594 L 86.539062 173.078125 Z M 158.652344 316.242188 L 86.539062 358.296875 L 14.421875 316.242188 L 14.421875 231.835938 L 86.539062 189.777344 L 158.652344 231.835938 Z M 158.652344 316.242188 "/>
<use xlink:href="#surface8" transform="matrix(1,0,0,1,14,187)" mask="url(#mask1)"/>
<path style=" stroke:none;fill-rule:nonzero;fill:rgb(85.099792%,85.099792%,85.099792%);fill-opacity:1;" d="M 288.476562 173.078125 L 201.921875 223.558594 L 201.921875 324.519531 L 288.476562 375 L 375 324.519531 L 375 223.558594 Z M 360.578125 316.242188 L 288.476562 358.296875 L 216.347656 316.242188 L 216.347656 231.835938 L 288.476562 189.777344 L 360.578125 231.835938 Z M 360.578125 316.242188 "/>
<use xlink:href="#surface11" transform="matrix(1,0,0,1,216,187)" mask="url(#mask2)"/>
</g>
</svg>
